<?xml version="1.0" encoding="utf-8"?>
<!-- Generator: Adobe Illustrator 23.0.1, SVG Export Plug-In . SVG Version: 6.00 Build 0)  -->
<svg version="1.1" id="Laag_1" xmlns="http://www.w3.org/2000/svg" xmlns:xlink="http://www.w3.org/1999/xlink" x="0px" y="0px"
	 viewBox="0 0 362.98 163.13" style="enable-background:new 0 0 362.98 163.13;" xml:space="preserve">
<style type="text/css">
	.st0{clip-path:url(#SVGID_2_);}
	.st1{clip-path:url(#SVGID_4_);}
	.st2{fill:none;}
	.st3{fill:none;stroke:#000000;stroke-width:4;stroke-miterlimit:10;}
	.st4{fill:none;stroke:#000000;stroke-width:2;stroke-miterlimit:10;}
	.st5{clip-path:url(#SVGID_6_);}
	.st6{clip-path:url(#SVGID_8_);}
	.st7{clip-path:url(#SVGID_10_);}
	.st8{clip-path:url(#SVGID_12_);}
</style>
<g>
	<path class="st2" d="M215.68,101.9c1.99,0,3.33-0.63,4.01-1.89c0.44-0.8,0.73-1.87,0.88-3.14h-9.86c0.16,1.27,0.44,2.33,0.88,3.14
		C212.29,101.27,213.65,101.9,215.68,101.9z"/>
	<path class="st2" d="M229.52,96.88h11.76v-4.5h-11.44v0.03C229.85,94.02,229.73,95.5,229.52,96.88z"/>
	<path class="st2" d="M84.6,72.03c0-3.41-0.56-5.96-1.67-7.67c-1.12-1.7-3.19-2.55-6.23-2.55c-3.08,0-5.19,0.84-6.33,2.52
		c-1.14,1.68-1.7,4.25-1.7,7.7v20.34H84.6V72.03z"/>
	<rect x="148.77" y="92.38" class="st2" width="21.41" height="4.5"/>
	<rect x="104.43" y="92.38" class="st2" width="21.41" height="4.5"/>
	<rect x="130.46" y="92.38" class="st2" width="13.62" height="4.5"/>
	<path class="st2" d="M201.77,96.88c-0.2-1.38-0.32-2.85-0.32-4.47v-0.03h-22.32v4.5H201.77z"/>
	<path class="st2" d="M220.73,94.54v-2.16h-10.16v2.16c0,0.86,0.06,1.63,0.15,2.34h9.86C220.67,96.16,220.73,95.4,220.73,94.54z"/>
	<rect x="271.33" y="85.6" class="st2" width="10.04" height="6.78"/>
	<rect x="290.37" y="92.38" class="st2" width="7.54" height="4.5"/>
	<path class="st2" d="M187.52,78.09c0.85-1.03,1.28-2.89,1.28-5.57c0-1.95-0.14-3.44-0.43-4.47c-0.28-1.03-0.86-1.81-1.73-2.34
		c-0.87-0.53-2.22-0.79-4.04-0.79h-3.47v14.72h3.47C185.02,79.64,186.66,79.12,187.52,78.09z"/>
	<path class="st2" d="M220.73,71.85c0-2.39-0.33-4.19-1-5.41c-0.67-1.22-2.02-1.83-4.04-1.83c-2.03,0-3.39,0.62-4.07,1.86
		c-0.69,1.24-1.03,3.03-1.03,5.38v20.53h10.16V71.85z"/>
	<rect x="271.33" y="92.38" class="st2" width="10.04" height="4.5"/>
	<rect x="250.23" y="92.38" class="st2" width="12.17" height="4.5"/>
	<path class="st2" d="M64.18,96.88c-0.13-1.11-0.2-2.29-0.2-3.56v-0.94H46.64v4.5H64.18z"/>
	<path class="st2" d="M76.69,104.76c3,0,5.07-0.88,6.2-2.65c0.83-1.3,1.36-3.05,1.58-5.23h-15.7c0.22,2.22,0.74,3.98,1.59,5.26
		C71.5,103.89,73.61,104.76,76.69,104.76z"/>
	<path class="st2" d="M89.09,96.88h10.71v-4.5H89.28v1.01C89.28,94.62,89.22,95.79,89.09,96.88z"/>
	<path class="st2" d="M84.6,94.36v-1.98H68.66v1.98c0,0.9,0.04,1.74,0.12,2.52h15.7C84.56,96.09,84.6,95.26,84.6,94.36z"/>
	<path class="st2" d="M42.02,42.72v15.87h4.62v33.79h17.34V72.88c0-4.78,0.97-8.44,2.92-10.98c1.95-2.54,5.21-3.8,9.8-3.8
		c4.5,0,7.72,1.28,9.67,3.83c1.95,2.55,2.92,6.2,2.92,10.95v19.49h10.52v-30.2h-9.91v-3.59h24.21v3.59h-9.67v30.2h21.41v-30.2h-9.91
		v-3.59h24.21v3.59h-9.67v30.2h13.62V58.59h17.82v3.59h-13.14v18.49h10.71v3.41h-10.71v8.3h21.41V58.59h14.48
		c8.39,0,12.59,4.66,12.59,13.99c0,8.92-4.4,13.38-13.2,13.38h-4.93v6.41h22.32V73.92c0-5.23,1.09-9.19,3.28-11.86
		s5.84-4.01,10.95-4.01c5.07,0,8.7,1.34,10.89,4.01c2.19,2.68,3.29,6.63,3.29,11.86v18.46h11.44V65.22h-8.21v-6.63h25.24v6.63h-8.09
		v27.16h12.17V58.59h8.94v20.56h10.04V58.59h9v33.79h7.54V58.59h20.68v6.33h-11.74v14.17h9.25v6.26h-9.25v7.02v4.5v4.84h11.86v6.14
		h-20.8V96.88h-7.54v10.98h-9V96.88h-10.04v10.98h-8.94V96.88h-12.17v10.98h-8.94V96.88h-11.76c-0.47,3.09-1.46,5.61-2.99,7.52
		c-2.21,2.76-5.83,4.13-10.86,4.13c-5.11,0-8.76-1.37-10.95-4.1c-1.52-1.9-2.5-4.42-2.96-7.55h-22.64v10.98h-8.94V96.88h-21.41v7.51
		h13.26v3.47h-17.94V96.88h-13.62v10.98h-4.62V96.88h-21.41v10.98h-4.62V96.88H89.09c-0.36,3.17-1.25,5.72-2.67,7.67
		c-1.91,2.62-5.15,3.93-9.73,3.93c-4.62,0-7.9-1.32-9.83-3.96c-1.42-1.95-2.32-4.49-2.69-7.64H46.64v7.51h13.99v3.47H42.02v0.67
		h276.94V42.72H42.02z M311.48,54.94h-5.6l3.71-12.23h9.37L311.48,54.94z"/>
	<rect x="42.02" y="58.59" width="4.62" height="33.79"/>
	<polygon points="60.63,104.39 46.64,104.39 46.64,96.88 42.02,96.88 42.02,107.86 60.63,107.86 	"/>
	<path d="M68.66,72.03c0-3.45,0.57-6.01,1.7-7.7c1.13-1.68,3.24-2.52,6.33-2.52c3.04,0,5.12,0.85,6.23,2.55
		c1.11,1.7,1.67,4.26,1.67,7.67v20.34h4.68V72.88c0-4.74-0.97-8.39-2.92-10.95c-1.95-2.55-5.17-3.83-9.67-3.83
		c-4.58,0-7.85,1.27-9.8,3.8c-1.94,2.54-2.92,6.19-2.92,10.98v19.49h4.68V72.03z"/>
	<path d="M82.9,102.11c-1.13,1.76-3.2,2.65-6.2,2.65c-3.08,0-5.19-0.87-6.33-2.62c-0.84-1.29-1.37-3.05-1.59-5.26h-4.6
		c0.37,3.14,1.27,5.69,2.69,7.64c1.93,2.64,5.2,3.96,9.83,3.96c4.58,0,7.82-1.31,9.73-3.93c1.42-1.94,2.31-4.5,2.67-7.67h-4.61
		C84.26,99.07,83.73,100.81,82.9,102.11z"/>
	<rect x="99.81" y="96.88" width="4.62" height="10.98"/>
	<polygon points="104.43,62.18 114.1,62.18 114.1,58.59 89.89,58.59 89.89,62.18 99.81,62.18 99.81,92.38 104.43,92.38 	"/>
	<rect x="125.84" y="96.88" width="4.62" height="10.98"/>
	<polygon points="130.46,62.18 140.13,62.18 140.13,58.59 115.92,58.59 115.92,62.18 125.84,62.18 125.84,92.38 130.46,92.38 	"/>
	<polygon points="144.09,107.86 162.03,107.86 162.03,104.39 148.77,104.39 148.77,96.88 144.09,96.88 	"/>
	<polygon points="148.77,84.08 159.48,84.08 159.48,80.67 148.77,80.67 148.77,62.18 161.91,62.18 161.91,58.59 144.09,58.59 
		144.09,92.38 148.77,92.38 	"/>
	<path d="M179.12,85.96h4.93c8.8,0,13.2-4.46,13.2-13.38c0-9.33-4.2-13.99-12.59-13.99h-14.48v33.79h8.94V85.96z M179.12,64.92h3.47
		c1.83,0,3.17,0.26,4.04,0.79c0.87,0.53,1.45,1.31,1.73,2.34c0.28,1.03,0.43,2.52,0.43,4.47c0,2.68-0.43,4.53-1.28,5.57
		c-0.85,1.03-2.49,1.55-4.93,1.55h-3.47V64.92z"/>
	<rect x="170.18" y="96.88" width="8.94" height="10.98"/>
	<path d="M210.57,71.85c0-2.35,0.34-4.15,1.03-5.38c0.69-1.23,2.05-1.86,4.07-1.86c2.03,0,3.38,0.61,4.04,1.83
		c0.67,1.22,1,3.02,1,5.41v20.53h9.13V73.92c0-5.23-1.1-9.19-3.29-11.86c-2.19-2.68-5.82-4.01-10.89-4.01
		c-5.11,0-8.76,1.34-10.95,4.01s-3.28,6.63-3.28,11.86v18.46h9.12V71.85z"/>
	<path d="M219.69,100.01c-0.69,1.26-2.03,1.89-4.01,1.89c-2.03,0-3.39-0.63-4.07-1.89c-0.44-0.8-0.73-1.87-0.88-3.14h-8.95
		c0.46,3.12,1.44,5.65,2.96,7.55c2.19,2.74,5.84,4.1,10.95,4.1c5.03,0,8.65-1.38,10.86-4.13c1.53-1.91,2.52-4.42,2.99-7.52h-8.95
		C220.42,98.15,220.13,99.21,219.69,100.01z"/>
	<rect x="241.29" y="96.88" width="8.94" height="10.98"/>
	<polygon points="250.23,65.22 258.32,65.22 258.32,58.59 233.07,58.59 233.07,65.22 241.29,65.22 241.29,92.38 250.23,92.38 	"/>
	<polygon points="271.33,85.6 281.37,85.6 281.37,92.38 290.37,92.38 290.37,58.59 281.37,58.59 281.37,79.15 271.33,79.15 
		271.33,58.59 262.39,58.59 262.39,92.38 271.33,92.38 	"/>
	<rect x="281.37" y="96.88" width="9" height="10.98"/>
	<rect x="262.39" y="96.88" width="8.94" height="10.98"/>
	<polygon points="306.86,85.36 316.1,85.36 316.1,79.09 306.86,79.09 306.86,64.92 318.59,64.92 318.59,58.59 297.92,58.59 
		297.92,92.38 306.86,92.38 	"/>
	<polygon points="297.92,107.86 318.72,107.86 318.72,101.71 306.86,101.71 306.86,96.88 297.92,96.88 	"/>
	<polygon points="305.88,54.94 311.48,54.94 318.96,42.72 309.59,42.72 	"/>
</g>
<line class="st3" x1="42.2" y1="120.13" x2="318.78" y2="120.13"/>
</svg>
